# xmcd
#
# Track frame offsets: 
#        150
#        22216
#        42937
#        62887
#        83752
#        114047
#        136910
#        156599
#        178639
#        199895
#        220211
#        243740
#        262097
#
# Disc length: 3798 seconds
#
# Revision: 1
# Processed by: cddbd v1.5.2PL0 Copyright (c) Steve Scherf et al.
# Submitted via: ExactAudioCopyFreeDBPlugin 1.0
#
DISCID=c10ed40d
DTITLE=羅海英 - 羅海英-情牽草原
DYEAR=1900
DGENRE=中文流行曲
TTITLE0=呼倫貝尔大草原
TTITLE1=為你等待
TTITLE2=阿里郎
TTITLE3=天邊的駱駝
TTITLE4=在那遙遠的地方
TTITLE5=牽手草原
TTITLE6=献給阿媽的歌
TTITLE7=小草
TTITLE8=手心里的温柔
TTITLE9=敖包相會
TTITLE10=曖昧
TTITLE11=米店
TTITLE12=馬蘭花
EXTD=
EXTT0=
EXTT1=
EXTT2=
EXTT3=
EXTT4=
EXTT5=
EXTT6=
EXTT7=
EXTT8=
EXTT9=
EXTT10=
EXTT11=
EXTT12=
PLAYORDER=
